<svg xmlns="http://www.w3.org/2000/svg" viewBox="0 0 70 47.56"><defs><style>.cls-1{fill:#f9f9f9;}</style></defs><title>mail icon updated</title><g id="Layer_2" data-name="Layer 2"><g id="Layer_1-2" data-name="Layer 1"><path class="cls-1" d="M2.22.66,33.79,28.38a1.58,1.58,0,0,0,2.08,0L68.44.85A4,4,0,0,0,66,0H4A4,4,0,0,0,2,.54Z"/><path class="cls-1" d="M70,4.78,46.58,24.58,70,44a3.93,3.93,0,0,0,0-.46Z"/><path class="cls-1" d="M43.47,27.21l-5,4.25a5.56,5.56,0,0,1-7.3-.07l-4.84-4.25L2.42,47.24A4,4,0,0,0,4,47.56H66a4,4,0,0,0,1.57-.32Z"/><path class="cls-1" d="M0,4V43.56A3.93,3.93,0,0,0,0,44L23.28,24.47Z"/></g></g></svg>